<mxfile host="app.diagrams.net" modified="2023-05-09T10:41:59.556Z" agent="Mozilla/5.0 (Windows NT 10.0; Win64; x64) AppleWebKit/537.36 (KHTML, like Gecko) Chrome/113.0.0.0 Safari/537.36" etag="rzUDTEJVbUoqNehgqKtP" version="21.2.9" type="device" pages="3">
  <diagram name="錯誤發票修改" id="c4acf3e9-155e-7222-9cf6-157b1a14988f">
    <mxGraphModel dx="880" dy="484" grid="1" gridSize="10" guides="1" tooltips="1" connect="1" arrows="1" fold="1" page="1" pageScale="1" pageWidth="850" pageHeight="1100" background="none" math="0" shadow="0">
      <root>
        <mxCell id="0" />
        <mxCell id="1" parent="0" />
        <mxCell id="ghHMwNl4-2IU3GXv16XO-2" value="錯誤發票修改" style="shape=note;size=20;whiteSpace=wrap;html=1;" parent="1" vertex="1">
          <mxGeometry x="440" y="110" width="140" height="70" as="geometry" />
        </mxCell>
        <mxCell id="ghHMwNl4-2IU3GXv16XO-8" style="edgeStyle=orthogonalEdgeStyle;rounded=0;orthogonalLoop=1;jettySize=auto;html=1;entryX=0.5;entryY=0;entryDx=0;entryDy=0;endArrow=open;endFill=0;" parent="1" source="ghHMwNl4-2IU3GXv16XO-3" target="ghHMwNl4-2IU3GXv16XO-9" edge="1">
          <mxGeometry relative="1" as="geometry">
            <mxPoint x="296.5" y="148.98000000000002" as="targetPoint" />
          </mxGeometry>
        </mxCell>
        <mxCell id="ghHMwNl4-2IU3GXv16XO-3" value="" style="shape=ellipse;html=1;fillColor=strokeColor;strokeWidth=2;verticalLabelPosition=bottom;verticalAlignment=top;perimeter=ellipsePerimeter;aspect=fixed;" parent="1" vertex="1">
          <mxGeometry x="283" y="140" width="27" height="27" as="geometry" />
        </mxCell>
        <mxCell id="ghHMwNl4-2IU3GXv16XO-4" value="" style="html=1;shape=mxgraph.sysml.actFinal;strokeWidth=2;verticalLabelPosition=bottom;verticalAlignment=top;aspect=fixed;" parent="1" vertex="1">
          <mxGeometry x="630" y="535.02" width="27" height="27" as="geometry" />
        </mxCell>
        <mxCell id="ghHMwNl4-2IU3GXv16XO-78" style="edgeStyle=orthogonalEdgeStyle;rounded=0;orthogonalLoop=1;jettySize=auto;html=1;entryX=1;entryY=0.5;entryDx=0;entryDy=0;endArrow=open;endFill=0;" parent="1" source="ghHMwNl4-2IU3GXv16XO-6" target="ghHMwNl4-2IU3GXv16XO-18" edge="1">
          <mxGeometry relative="1" as="geometry" />
        </mxCell>
        <mxCell id="ghHMwNl4-2IU3GXv16XO-84" style="edgeStyle=orthogonalEdgeStyle;rounded=0;orthogonalLoop=1;jettySize=auto;html=1;entryX=0;entryY=0.5;entryDx=0;entryDy=0;endArrow=open;endFill=0;" parent="1" source="ghHMwNl4-2IU3GXv16XO-6" target="ghHMwNl4-2IU3GXv16XO-98" edge="1">
          <mxGeometry relative="1" as="geometry" />
        </mxCell>
        <mxCell id="ghHMwNl4-2IU3GXv16XO-6" value="" style="rhombus;whiteSpace=wrap;html=1;aspect=fixed;" parent="1" vertex="1">
          <mxGeometry x="268.5" y="351.98" width="56" height="40.04" as="geometry" />
        </mxCell>
        <mxCell id="ghHMwNl4-2IU3GXv16XO-12" style="edgeStyle=orthogonalEdgeStyle;rounded=0;orthogonalLoop=1;jettySize=auto;html=1;endArrow=open;endFill=0;" parent="1" source="ghHMwNl4-2IU3GXv16XO-9" target="ghHMwNl4-2IU3GXv16XO-13" edge="1">
          <mxGeometry relative="1" as="geometry">
            <mxPoint x="390" y="196.98000000000002" as="targetPoint" />
          </mxGeometry>
        </mxCell>
        <mxCell id="ghHMwNl4-2IU3GXv16XO-9" value="修改頁面" style="shape=rect;html=1;rounded=1;whiteSpace=wrap;align=center;aspect=fixed;" parent="1" vertex="1">
          <mxGeometry x="246.5" y="201.98000000000002" width="100" height="50" as="geometry" />
        </mxCell>
        <mxCell id="ghHMwNl4-2IU3GXv16XO-15" style="edgeStyle=orthogonalEdgeStyle;rounded=0;orthogonalLoop=1;jettySize=auto;html=1;entryX=0.5;entryY=0;entryDx=0;entryDy=0;endArrow=open;endFill=0;" parent="1" source="ghHMwNl4-2IU3GXv16XO-13" target="ghHMwNl4-2IU3GXv16XO-6" edge="1">
          <mxGeometry relative="1" as="geometry" />
        </mxCell>
        <mxCell id="ghHMwNl4-2IU3GXv16XO-13" value="是否修改" style="shape=rect;html=1;rounded=1;whiteSpace=wrap;align=center;aspect=fixed;" parent="1" vertex="1">
          <mxGeometry x="246.5" y="281.98" width="100" height="50" as="geometry" />
        </mxCell>
        <mxCell id="ghHMwNl4-2IU3GXv16XO-17" value="[ 放棄 ]" style="text;html=1;strokeColor=none;fillColor=none;align=center;verticalAlign=middle;whiteSpace=wrap;rounded=0;" parent="1" vertex="1">
          <mxGeometry x="320" y="347.00000000000006" width="60" height="30" as="geometry" />
        </mxCell>
        <mxCell id="ghHMwNl4-2IU3GXv16XO-79" style="edgeStyle=orthogonalEdgeStyle;rounded=0;orthogonalLoop=1;jettySize=auto;html=1;entryX=0.5;entryY=0;entryDx=0;entryDy=0;endArrow=open;endFill=0;" parent="1" source="ghHMwNl4-2IU3GXv16XO-18" target="ghHMwNl4-2IU3GXv16XO-21" edge="1">
          <mxGeometry relative="1" as="geometry" />
        </mxCell>
        <mxCell id="ghHMwNl4-2IU3GXv16XO-18" value="錯誤欄位修改" style="shape=rect;html=1;rounded=1;whiteSpace=wrap;align=center;aspect=fixed;" parent="1" vertex="1">
          <mxGeometry x="110" y="347" width="100" height="50" as="geometry" />
        </mxCell>
        <mxCell id="ghHMwNl4-2IU3GXv16XO-20" value="[ 修改 ]" style="text;html=1;strokeColor=none;fillColor=none;align=center;verticalAlign=middle;whiteSpace=wrap;rounded=0;" parent="1" vertex="1">
          <mxGeometry x="220" y="347" width="60" height="30" as="geometry" />
        </mxCell>
        <mxCell id="ghHMwNl4-2IU3GXv16XO-110" style="edgeStyle=orthogonalEdgeStyle;rounded=0;orthogonalLoop=1;jettySize=auto;html=1;entryX=1;entryY=0.5;entryDx=0;entryDy=0;endArrow=open;endFill=0;" parent="1" source="ghHMwNl4-2IU3GXv16XO-21" target="ghHMwNl4-2IU3GXv16XO-23" edge="1">
          <mxGeometry relative="1" as="geometry" />
        </mxCell>
        <mxCell id="ghHMwNl4-2IU3GXv16XO-21" value="程式檢核修改內容" style="shape=rect;html=1;rounded=1;whiteSpace=wrap;align=center;aspect=fixed;" parent="1" vertex="1">
          <mxGeometry x="110" y="438.5" width="100" height="50" as="geometry" />
        </mxCell>
        <mxCell id="ghHMwNl4-2IU3GXv16XO-81" style="edgeStyle=orthogonalEdgeStyle;rounded=0;orthogonalLoop=1;jettySize=auto;html=1;entryX=0;entryY=0.5;entryDx=0;entryDy=0;endArrow=open;endFill=0;" parent="1" source="ghHMwNl4-2IU3GXv16XO-23" target="ghHMwNl4-2IU3GXv16XO-13" edge="1">
          <mxGeometry relative="1" as="geometry">
            <mxPoint x="220" y="306.98" as="targetPoint" />
            <Array as="points">
              <mxPoint x="28" y="306.98" />
            </Array>
          </mxGeometry>
        </mxCell>
        <mxCell id="ghHMwNl4-2IU3GXv16XO-125" style="rounded=0;orthogonalLoop=1;jettySize=auto;html=1;entryX=0.25;entryY=0;entryDx=0;entryDy=0;endArrow=open;endFill=0;" parent="1" source="ghHMwNl4-2IU3GXv16XO-23" target="ghHMwNl4-2IU3GXv16XO-92" edge="1">
          <mxGeometry relative="1" as="geometry" />
        </mxCell>
        <mxCell id="ghHMwNl4-2IU3GXv16XO-23" value="" style="rhombus;whiteSpace=wrap;html=1;aspect=fixed;" parent="1" vertex="1">
          <mxGeometry y="443.48" width="56" height="40.04" as="geometry" />
        </mxCell>
        <mxCell id="ghHMwNl4-2IU3GXv16XO-117" style="edgeStyle=orthogonalEdgeStyle;rounded=0;orthogonalLoop=1;jettySize=auto;html=1;entryX=0.5;entryY=1;entryDx=0;entryDy=0;endArrow=open;endFill=0;" parent="1" source="ghHMwNl4-2IU3GXv16XO-25" target="ghHMwNl4-2IU3GXv16XO-33" edge="1">
          <mxGeometry relative="1" as="geometry" />
        </mxCell>
        <mxCell id="ghHMwNl4-2IU3GXv16XO-25" value="存回資料庫" style="shape=rect;html=1;rounded=1;whiteSpace=wrap;align=center;aspect=fixed;" parent="1" vertex="1">
          <mxGeometry x="400" y="611.98" width="100" height="50" as="geometry" />
        </mxCell>
        <mxCell id="ghHMwNl4-2IU3GXv16XO-29" value="[ 正確 ]" style="text;html=1;strokeColor=none;fillColor=none;align=center;verticalAlign=middle;whiteSpace=wrap;rounded=0;" parent="1" vertex="1">
          <mxGeometry x="23" y="483.52" width="60" height="30" as="geometry" />
        </mxCell>
        <mxCell id="ghHMwNl4-2IU3GXv16XO-30" value="[ 錯誤 ]" style="text;html=1;strokeColor=none;fillColor=none;align=center;verticalAlign=middle;whiteSpace=wrap;rounded=0;" parent="1" vertex="1">
          <mxGeometry x="23" y="413.47999999999996" width="60" height="30" as="geometry" />
        </mxCell>
        <mxCell id="ghHMwNl4-2IU3GXv16XO-86" style="edgeStyle=orthogonalEdgeStyle;rounded=0;orthogonalLoop=1;jettySize=auto;html=1;entryX=0;entryY=0.5;entryDx=0;entryDy=0;endArrow=open;endFill=0;" parent="1" source="ghHMwNl4-2IU3GXv16XO-33" target="ghHMwNl4-2IU3GXv16XO-34" edge="1">
          <mxGeometry relative="1" as="geometry" />
        </mxCell>
        <mxCell id="ghHMwNl4-2IU3GXv16XO-33" value="是否有下一筆" style="shape=rect;html=1;rounded=1;whiteSpace=wrap;align=center;aspect=fixed;" parent="1" vertex="1">
          <mxGeometry x="400" y="523.52" width="100" height="50" as="geometry" />
        </mxCell>
        <mxCell id="ghHMwNl4-2IU3GXv16XO-90" style="edgeStyle=orthogonalEdgeStyle;rounded=0;orthogonalLoop=1;jettySize=auto;html=1;entryX=1;entryY=0.5;entryDx=0;entryDy=0;endArrow=open;endFill=0;" parent="1" source="ghHMwNl4-2IU3GXv16XO-34" target="ghHMwNl4-2IU3GXv16XO-13" edge="1">
          <mxGeometry relative="1" as="geometry">
            <Array as="points">
              <mxPoint x="558" y="306.98" />
            </Array>
          </mxGeometry>
        </mxCell>
        <mxCell id="ghHMwNl4-2IU3GXv16XO-91" style="edgeStyle=orthogonalEdgeStyle;rounded=0;orthogonalLoop=1;jettySize=auto;html=1;entryX=0;entryY=0.5;entryDx=0;entryDy=0;entryPerimeter=0;" parent="1" source="ghHMwNl4-2IU3GXv16XO-34" target="ghHMwNl4-2IU3GXv16XO-4" edge="1">
          <mxGeometry relative="1" as="geometry" />
        </mxCell>
        <mxCell id="ghHMwNl4-2IU3GXv16XO-34" value="" style="rhombus;whiteSpace=wrap;html=1;aspect=fixed;" parent="1" vertex="1">
          <mxGeometry x="530" y="528.5" width="56" height="40.04" as="geometry" />
        </mxCell>
        <mxCell id="ghHMwNl4-2IU3GXv16XO-37" value="[ 無 ]" style="text;html=1;strokeColor=none;fillColor=none;align=center;verticalAlign=middle;whiteSpace=wrap;rounded=0;" parent="1" vertex="1">
          <mxGeometry x="570" y="523.52" width="60" height="30" as="geometry" />
        </mxCell>
        <mxCell id="ghHMwNl4-2IU3GXv16XO-38" value="[ 有 ]" style="text;html=1;strokeColor=none;fillColor=none;align=center;verticalAlign=middle;whiteSpace=wrap;rounded=0;" parent="1" vertex="1">
          <mxGeometry x="544.5" y="498.5" width="60" height="30" as="geometry" />
        </mxCell>
        <mxCell id="ghHMwNl4-2IU3GXv16XO-85" style="edgeStyle=orthogonalEdgeStyle;rounded=0;orthogonalLoop=1;jettySize=auto;html=1;entryX=0.5;entryY=0;entryDx=0;entryDy=0;endArrow=open;endFill=0;" parent="1" source="ghHMwNl4-2IU3GXv16XO-39" target="ghHMwNl4-2IU3GXv16XO-33" edge="1">
          <mxGeometry relative="1" as="geometry" />
        </mxCell>
        <mxCell id="ghHMwNl4-2IU3GXv16XO-39" value="此筆於資料庫刪除" style="shape=rect;html=1;rounded=1;whiteSpace=wrap;align=center;aspect=fixed;" parent="1" vertex="1">
          <mxGeometry x="400" y="438.49999999999994" width="100" height="50" as="geometry" />
        </mxCell>
        <mxCell id="ghHMwNl4-2IU3GXv16XO-111" style="edgeStyle=orthogonalEdgeStyle;rounded=0;orthogonalLoop=1;jettySize=auto;html=1;endArrow=open;endFill=0;" parent="1" source="ghHMwNl4-2IU3GXv16XO-92" target="ghHMwNl4-2IU3GXv16XO-103" edge="1">
          <mxGeometry relative="1" as="geometry" />
        </mxCell>
        <mxCell id="ghHMwNl4-2IU3GXv16XO-92" value="統編正確客戶建檔" style="shape=rect;html=1;rounded=1;whiteSpace=wrap;align=center;aspect=fixed;" parent="1" vertex="1">
          <mxGeometry x="3" y="523.52" width="100" height="50" as="geometry" />
        </mxCell>
        <mxCell id="ghHMwNl4-2IU3GXv16XO-130" style="edgeStyle=orthogonalEdgeStyle;rounded=0;orthogonalLoop=1;jettySize=auto;html=1;entryX=0;entryY=0.5;entryDx=0;entryDy=0;endArrow=open;endFill=0;" parent="1" source="ghHMwNl4-2IU3GXv16XO-97" target="ghHMwNl4-2IU3GXv16XO-25" edge="1">
          <mxGeometry relative="1" as="geometry" />
        </mxCell>
        <mxCell id="ghHMwNl4-2IU3GXv16XO-97" value="修改儲存" style="shape=rect;html=1;rounded=1;whiteSpace=wrap;align=center;aspect=fixed;" parent="1" vertex="1">
          <mxGeometry x="260" y="611.98" width="100" height="50" as="geometry" />
        </mxCell>
        <mxCell id="ghHMwNl4-2IU3GXv16XO-99" style="edgeStyle=orthogonalEdgeStyle;rounded=0;orthogonalLoop=1;jettySize=auto;html=1;entryX=0.5;entryY=0;entryDx=0;entryDy=0;endArrow=open;endFill=0;" parent="1" source="ghHMwNl4-2IU3GXv16XO-98" target="ghHMwNl4-2IU3GXv16XO-39" edge="1">
          <mxGeometry relative="1" as="geometry" />
        </mxCell>
        <mxCell id="ghHMwNl4-2IU3GXv16XO-98" value="放棄修改" style="shape=rect;html=1;rounded=1;whiteSpace=wrap;align=center;aspect=fixed;" parent="1" vertex="1">
          <mxGeometry x="400" y="346.99999999999994" width="100" height="50" as="geometry" />
        </mxCell>
        <mxCell id="ghHMwNl4-2IU3GXv16XO-122" style="edgeStyle=orthogonalEdgeStyle;rounded=0;orthogonalLoop=1;jettySize=auto;html=1;entryX=0;entryY=0.5;entryDx=0;entryDy=0;endArrow=open;endFill=0;" parent="1" source="ghHMwNl4-2IU3GXv16XO-103" target="ghHMwNl4-2IU3GXv16XO-114" edge="1">
          <mxGeometry relative="1" as="geometry" />
        </mxCell>
        <mxCell id="ghHMwNl4-2IU3GXv16XO-123" style="edgeStyle=orthogonalEdgeStyle;rounded=0;orthogonalLoop=1;jettySize=auto;html=1;entryX=0;entryY=0.5;entryDx=0;entryDy=0;endArrow=open;endFill=0;" parent="1" source="ghHMwNl4-2IU3GXv16XO-103" target="ghHMwNl4-2IU3GXv16XO-97" edge="1">
          <mxGeometry relative="1" as="geometry">
            <Array as="points">
              <mxPoint x="178" y="636.98" />
            </Array>
          </mxGeometry>
        </mxCell>
        <mxCell id="ghHMwNl4-2IU3GXv16XO-103" value="" style="rhombus;whiteSpace=wrap;html=1;aspect=fixed;" parent="1" vertex="1">
          <mxGeometry x="150" y="528.5" width="56" height="40.04" as="geometry" />
        </mxCell>
        <mxCell id="ghHMwNl4-2IU3GXv16XO-121" style="edgeStyle=orthogonalEdgeStyle;rounded=0;orthogonalLoop=1;jettySize=auto;html=1;entryX=0.5;entryY=0;entryDx=0;entryDy=0;endArrow=open;endFill=0;" parent="1" source="ghHMwNl4-2IU3GXv16XO-114" target="ghHMwNl4-2IU3GXv16XO-97" edge="1">
          <mxGeometry relative="1" as="geometry" />
        </mxCell>
        <mxCell id="ghHMwNl4-2IU3GXv16XO-114" value="客戶檔建立" style="shape=rect;html=1;rounded=1;whiteSpace=wrap;align=center;aspect=fixed;" parent="1" vertex="1">
          <mxGeometry x="260" y="523.52" width="100" height="50" as="geometry" />
        </mxCell>
        <mxCell id="ghHMwNl4-2IU3GXv16XO-126" value="[ 是 ]" style="text;html=1;strokeColor=none;fillColor=none;align=center;verticalAlign=middle;whiteSpace=wrap;rounded=0;" parent="1" vertex="1">
          <mxGeometry x="200" y="523.52" width="60" height="30" as="geometry" />
        </mxCell>
        <mxCell id="ghHMwNl4-2IU3GXv16XO-127" value="[ 否 ]" style="text;html=1;strokeColor=none;fillColor=none;align=center;verticalAlign=middle;whiteSpace=wrap;rounded=0;" parent="1" vertex="1">
          <mxGeometry x="170" y="568.54" width="60" height="30" as="geometry" />
        </mxCell>
      </root>
    </mxGraphModel>
  </diagram>
  <diagram id="WsdL6b-0y-aYhKdPmepd" name="登入登出註冊">
    <mxGraphModel dx="2084" dy="1860" grid="1" gridSize="10" guides="1" tooltips="1" connect="1" arrows="1" fold="1" page="1" pageScale="1" pageWidth="827" pageHeight="1169" math="0" shadow="0">
      <root>
        <mxCell id="0" />
        <mxCell id="1" parent="0" />
        <mxCell id="L3rix1qcFKLYm2jVyzR--1" value="登入/登出/註冊" style="shape=note;size=20;whiteSpace=wrap;html=1;" parent="1" vertex="1">
          <mxGeometry x="498.64" y="-61.5" width="140" height="70" as="geometry" />
        </mxCell>
        <mxCell id="L3rix1qcFKLYm2jVyzR--269" style="edgeStyle=orthogonalEdgeStyle;rounded=0;orthogonalLoop=1;jettySize=auto;html=1;entryX=0.5;entryY=0;entryDx=0;entryDy=0;endArrow=open;endFill=0;" parent="1" source="L3rix1qcFKLYm2jVyzR--3" target="L3rix1qcFKLYm2jVyzR--245" edge="1">
          <mxGeometry relative="1" as="geometry" />
        </mxCell>
        <mxCell id="L3rix1qcFKLYm2jVyzR--3" value="" style="shape=ellipse;html=1;fillColor=strokeColor;strokeWidth=2;verticalLabelPosition=bottom;verticalAlignment=top;perimeter=ellipsePerimeter;aspect=fixed;" parent="1" vertex="1">
          <mxGeometry x="138.8" y="-40" width="27" height="27" as="geometry" />
        </mxCell>
        <mxCell id="L3rix1qcFKLYm2jVyzR--69" style="edgeStyle=orthogonalEdgeStyle;rounded=0;orthogonalLoop=1;jettySize=auto;html=1;entryX=1;entryY=0.5;entryDx=0;entryDy=0;endArrow=open;endFill=0;exitX=1;exitY=0.5;exitDx=0;exitDy=0;" parent="1" source="L3rix1qcFKLYm2jVyzR--11" target="L3rix1qcFKLYm2jVyzR--68" edge="1">
          <mxGeometry relative="1" as="geometry" />
        </mxCell>
        <mxCell id="fvnQoVcxm32_NNb4MGqW-2" style="rounded=0;orthogonalLoop=1;jettySize=auto;html=1;entryX=1;entryY=0.25;entryDx=0;entryDy=0;endArrow=open;endFill=0;exitX=0;exitY=0.75;exitDx=0;exitDy=0;" edge="1" parent="1" source="L3rix1qcFKLYm2jVyzR--11" target="fvnQoVcxm32_NNb4MGqW-1">
          <mxGeometry relative="1" as="geometry">
            <mxPoint x="250" y="171" as="sourcePoint" />
          </mxGeometry>
        </mxCell>
        <mxCell id="L3rix1qcFKLYm2jVyzR--11" value="登入頁面" style="shape=rect;html=1;rounded=1;whiteSpace=wrap;align=center;aspect=fixed;" parent="1" vertex="1">
          <mxGeometry x="246.55" y="120.00000000000003" width="100" height="50" as="geometry" />
        </mxCell>
        <mxCell id="L3rix1qcFKLYm2jVyzR--51" value="輸入帳號" style="shape=rect;html=1;rounded=1;whiteSpace=wrap;align=center;aspect=fixed;" parent="1" vertex="1">
          <mxGeometry x="-128.44000000000005" y="394.6099999999999" width="100" height="50" as="geometry" />
        </mxCell>
        <mxCell id="L3rix1qcFKLYm2jVyzR--71" style="edgeStyle=orthogonalEdgeStyle;rounded=0;orthogonalLoop=1;jettySize=auto;html=1;endArrow=open;endFill=0;" parent="1" source="L3rix1qcFKLYm2jVyzR--68" target="L3rix1qcFKLYm2jVyzR--70" edge="1">
          <mxGeometry relative="1" as="geometry" />
        </mxCell>
        <mxCell id="L3rix1qcFKLYm2jVyzR--68" value="管理者是否有帳號" style="shape=rect;html=1;rounded=1;whiteSpace=wrap;align=center;aspect=fixed;" parent="1" vertex="1">
          <mxGeometry x="246.5" y="290" width="100" height="50" as="geometry" />
        </mxCell>
        <mxCell id="L3rix1qcFKLYm2jVyzR--178" style="edgeStyle=orthogonalEdgeStyle;rounded=0;orthogonalLoop=1;jettySize=auto;html=1;entryX=0;entryY=0.5;entryDx=0;entryDy=0;endArrow=open;endFill=0;" parent="1" source="L3rix1qcFKLYm2jVyzR--70" target="L3rix1qcFKLYm2jVyzR--171" edge="1">
          <mxGeometry relative="1" as="geometry">
            <Array as="points">
              <mxPoint x="122" y="385" />
            </Array>
          </mxGeometry>
        </mxCell>
        <mxCell id="L3rix1qcFKLYm2jVyzR--179" style="edgeStyle=orthogonalEdgeStyle;rounded=0;orthogonalLoop=1;jettySize=auto;html=1;endArrow=open;endFill=0;" parent="1" source="L3rix1qcFKLYm2jVyzR--70" edge="1">
          <mxGeometry relative="1" as="geometry">
            <mxPoint x="-10" y="340" as="targetPoint" />
          </mxGeometry>
        </mxCell>
        <mxCell id="L3rix1qcFKLYm2jVyzR--70" value="" style="rhombus;whiteSpace=wrap;html=1;aspect=fixed;" parent="1" vertex="1">
          <mxGeometry x="94" y="294.9800000000001" width="56" height="40.04" as="geometry" />
        </mxCell>
        <mxCell id="L3rix1qcFKLYm2jVyzR--72" value="[ 有 ]" style="text;html=1;strokeColor=none;fillColor=none;align=center;verticalAlign=middle;whiteSpace=wrap;rounded=0;" parent="1" vertex="1">
          <mxGeometry x="39.8" y="286" width="60" height="30" as="geometry" />
        </mxCell>
        <mxCell id="L3rix1qcFKLYm2jVyzR--73" value="[ 無 ]" style="text;html=1;strokeColor=none;fillColor=none;align=center;verticalAlign=middle;whiteSpace=wrap;rounded=0;" parent="1" vertex="1">
          <mxGeometry x="109" y="335.02" width="60" height="30" as="geometry" />
        </mxCell>
        <mxCell id="L3rix1qcFKLYm2jVyzR--76" value="輸入密碼" style="shape=rect;html=1;rounded=1;whiteSpace=wrap;align=center;aspect=fixed;" parent="1" vertex="1">
          <mxGeometry x="-14" y="394.61" width="100" height="50" as="geometry" />
        </mxCell>
        <mxCell id="L3rix1qcFKLYm2jVyzR--78" value="" style="endArrow=none;html=1;rounded=0;strokeWidth=5;" parent="1" edge="1">
          <mxGeometry width="50" height="50" relative="1" as="geometry">
            <mxPoint x="-127" y="344.60999999999996" as="sourcePoint" />
            <mxPoint x="82.5" y="344.6099999999999" as="targetPoint" />
          </mxGeometry>
        </mxCell>
        <mxCell id="L3rix1qcFKLYm2jVyzR--79" value="" style="endArrow=none;html=1;rounded=0;strokeWidth=5;" parent="1" edge="1">
          <mxGeometry width="50" height="50" relative="1" as="geometry">
            <mxPoint x="-128.44000000000005" y="488.60999999999996" as="sourcePoint" />
            <mxPoint x="81.05999999999995" y="488.60999999999996" as="targetPoint" />
          </mxGeometry>
        </mxCell>
        <mxCell id="L3rix1qcFKLYm2jVyzR--80" style="rounded=0;orthogonalLoop=1;jettySize=auto;html=1;endArrow=open;endFill=0;entryX=0.5;entryY=0;entryDx=0;entryDy=0;" parent="1" target="L3rix1qcFKLYm2jVyzR--51" edge="1">
          <mxGeometry relative="1" as="geometry">
            <mxPoint x="-37" y="344.60999999999996" as="sourcePoint" />
            <mxPoint x="-17" y="354.60999999999996" as="targetPoint" />
          </mxGeometry>
        </mxCell>
        <mxCell id="L3rix1qcFKLYm2jVyzR--81" style="rounded=0;orthogonalLoop=1;jettySize=auto;html=1;endArrow=open;endFill=0;entryX=0.5;entryY=0;entryDx=0;entryDy=0;" parent="1" target="L3rix1qcFKLYm2jVyzR--76" edge="1">
          <mxGeometry relative="1" as="geometry">
            <mxPoint x="-17" y="344.60999999999996" as="sourcePoint" />
            <mxPoint x="-68" y="404.61" as="targetPoint" />
          </mxGeometry>
        </mxCell>
        <mxCell id="L3rix1qcFKLYm2jVyzR--82" style="rounded=0;orthogonalLoop=1;jettySize=auto;html=1;endArrow=open;endFill=0;exitX=0.5;exitY=1;exitDx=0;exitDy=0;" parent="1" source="L3rix1qcFKLYm2jVyzR--51" edge="1">
          <mxGeometry relative="1" as="geometry">
            <mxPoint x="-27" y="354.60999999999996" as="sourcePoint" />
            <mxPoint x="-27" y="484.60999999999996" as="targetPoint" />
          </mxGeometry>
        </mxCell>
        <mxCell id="L3rix1qcFKLYm2jVyzR--83" style="rounded=0;orthogonalLoop=1;jettySize=auto;html=1;endArrow=open;endFill=0;exitX=0.5;exitY=1;exitDx=0;exitDy=0;" parent="1" source="L3rix1qcFKLYm2jVyzR--76" edge="1">
          <mxGeometry relative="1" as="geometry">
            <mxPoint x="-68" y="454.61" as="sourcePoint" />
            <mxPoint x="-17" y="484.60999999999996" as="targetPoint" />
          </mxGeometry>
        </mxCell>
        <mxCell id="L3rix1qcFKLYm2jVyzR--90" style="edgeStyle=orthogonalEdgeStyle;rounded=0;orthogonalLoop=1;jettySize=auto;html=1;endArrow=open;endFill=0;exitX=1;exitY=0.5;exitDx=0;exitDy=0;" parent="1" source="L3rix1qcFKLYm2jVyzR--171" edge="1">
          <mxGeometry relative="1" as="geometry">
            <mxPoint x="300" y="500" as="targetPoint" />
            <mxPoint x="412.0542986425339" y="470.05882352941194" as="sourcePoint" />
            <Array as="points">
              <mxPoint x="300" y="385" />
            </Array>
          </mxGeometry>
        </mxCell>
        <mxCell id="L3rix1qcFKLYm2jVyzR--94" value="" style="endArrow=none;html=1;rounded=0;strokeWidth=5;" parent="1" edge="1">
          <mxGeometry width="50" height="50" relative="1" as="geometry">
            <mxPoint x="169.57999999999993" y="502.81999999999994" as="sourcePoint" />
            <mxPoint x="379.0799999999999" y="502.81999999999994" as="targetPoint" />
          </mxGeometry>
        </mxCell>
        <mxCell id="L3rix1qcFKLYm2jVyzR--96" value="公司統編" style="shape=rect;html=1;rounded=1;whiteSpace=wrap;align=center;aspect=fixed;" parent="1" vertex="1">
          <mxGeometry x="50.980000000000004" y="554.8199999999999" width="76" height="38" as="geometry" />
        </mxCell>
        <mxCell id="L3rix1qcFKLYm2jVyzR--97" value="公司" style="shape=rect;html=1;rounded=1;whiteSpace=wrap;align=center;aspect=fixed;" parent="1" vertex="1">
          <mxGeometry x="130.85999999999999" y="554.8199999999999" width="76" height="38" as="geometry" />
        </mxCell>
        <mxCell id="L3rix1qcFKLYm2jVyzR--98" value="帳號" style="shape=rect;html=1;rounded=1;whiteSpace=wrap;align=center;aspect=fixed;" parent="1" vertex="1">
          <mxGeometry x="210.51999999999998" y="554.8199999999999" width="76" height="38" as="geometry" />
        </mxCell>
        <mxCell id="L3rix1qcFKLYm2jVyzR--99" value="密碼" style="shape=rect;html=1;rounded=1;whiteSpace=wrap;align=center;aspect=fixed;" parent="1" vertex="1">
          <mxGeometry x="289.64" y="554.8199999999999" width="76" height="38" as="geometry" />
        </mxCell>
        <mxCell id="L3rix1qcFKLYm2jVyzR--100" value="地址(公司)" style="shape=rect;html=1;rounded=1;whiteSpace=wrap;align=center;aspect=fixed;" parent="1" vertex="1">
          <mxGeometry x="370.14" y="554.8199999999999" width="76" height="38" as="geometry" />
        </mxCell>
        <mxCell id="L3rix1qcFKLYm2jVyzR--101" style="rounded=0;orthogonalLoop=1;jettySize=auto;html=1;endArrow=open;endFill=0;entryX=0.5;entryY=0;entryDx=0;entryDy=0;" parent="1" target="L3rix1qcFKLYm2jVyzR--96" edge="1">
          <mxGeometry relative="1" as="geometry">
            <mxPoint x="234.07999999999993" y="502.81999999999994" as="sourcePoint" />
            <mxPoint x="284.0799999999999" y="512.8199999999999" as="targetPoint" />
          </mxGeometry>
        </mxCell>
        <mxCell id="L3rix1qcFKLYm2jVyzR--102" style="rounded=0;orthogonalLoop=1;jettySize=auto;html=1;endArrow=open;endFill=0;entryX=0.5;entryY=0;entryDx=0;entryDy=0;" parent="1" target="L3rix1qcFKLYm2jVyzR--97" edge="1">
          <mxGeometry relative="1" as="geometry">
            <mxPoint x="264.0799999999999" y="502.81999999999994" as="sourcePoint" />
            <mxPoint x="294.0799999999999" y="522.8199999999999" as="targetPoint" />
          </mxGeometry>
        </mxCell>
        <mxCell id="L3rix1qcFKLYm2jVyzR--103" style="rounded=0;orthogonalLoop=1;jettySize=auto;html=1;endArrow=open;endFill=0;entryX=0.5;entryY=0;entryDx=0;entryDy=0;" parent="1" target="L3rix1qcFKLYm2jVyzR--98" edge="1">
          <mxGeometry relative="1" as="geometry">
            <mxPoint x="276.0799999999999" y="502.81999999999994" as="sourcePoint" />
            <mxPoint x="304.0799999999999" y="532.8199999999999" as="targetPoint" />
          </mxGeometry>
        </mxCell>
        <mxCell id="L3rix1qcFKLYm2jVyzR--104" style="rounded=0;orthogonalLoop=1;jettySize=auto;html=1;endArrow=open;endFill=0;entryX=0.5;entryY=0;entryDx=0;entryDy=0;" parent="1" target="L3rix1qcFKLYm2jVyzR--99" edge="1">
          <mxGeometry relative="1" as="geometry">
            <mxPoint x="304.0799999999999" y="502.81999999999994" as="sourcePoint" />
            <mxPoint x="314.0799999999999" y="542.8199999999999" as="targetPoint" />
          </mxGeometry>
        </mxCell>
        <mxCell id="L3rix1qcFKLYm2jVyzR--105" style="rounded=0;orthogonalLoop=1;jettySize=auto;html=1;endArrow=open;endFill=0;entryX=0.5;entryY=0;entryDx=0;entryDy=0;" parent="1" target="L3rix1qcFKLYm2jVyzR--100" edge="1">
          <mxGeometry relative="1" as="geometry">
            <mxPoint x="344.0799999999999" y="502.81999999999994" as="sourcePoint" />
            <mxPoint x="324.0799999999999" y="552.8199999999999" as="targetPoint" />
          </mxGeometry>
        </mxCell>
        <mxCell id="L3rix1qcFKLYm2jVyzR--106" value="" style="endArrow=none;html=1;rounded=0;strokeWidth=5;" parent="1" edge="1">
          <mxGeometry width="50" height="50" relative="1" as="geometry">
            <mxPoint x="171.64" y="638.8199999999999" as="sourcePoint" />
            <mxPoint x="381.14" y="638.8199999999999" as="targetPoint" />
          </mxGeometry>
        </mxCell>
        <mxCell id="L3rix1qcFKLYm2jVyzR--112" style="rounded=0;orthogonalLoop=1;jettySize=auto;html=1;endArrow=open;endFill=0;exitX=0.5;exitY=1;exitDx=0;exitDy=0;" parent="1" source="L3rix1qcFKLYm2jVyzR--96" edge="1">
          <mxGeometry relative="1" as="geometry">
            <mxPoint x="244.14" y="532.8199999999999" as="sourcePoint" />
            <mxPoint x="204.14" y="632.8199999999999" as="targetPoint" />
          </mxGeometry>
        </mxCell>
        <mxCell id="L3rix1qcFKLYm2jVyzR--113" style="rounded=0;orthogonalLoop=1;jettySize=auto;html=1;endArrow=open;endFill=0;exitX=0.5;exitY=1;exitDx=0;exitDy=0;" parent="1" source="L3rix1qcFKLYm2jVyzR--97" edge="1">
          <mxGeometry relative="1" as="geometry">
            <mxPoint x="122.14" y="610.8199999999999" as="sourcePoint" />
            <mxPoint x="224.14" y="632.8199999999999" as="targetPoint" />
          </mxGeometry>
        </mxCell>
        <mxCell id="L3rix1qcFKLYm2jVyzR--114" style="rounded=0;orthogonalLoop=1;jettySize=auto;html=1;endArrow=open;endFill=0;exitX=0.5;exitY=1;exitDx=0;exitDy=0;" parent="1" source="L3rix1qcFKLYm2jVyzR--98" edge="1">
          <mxGeometry relative="1" as="geometry">
            <mxPoint x="132.14" y="620.8199999999999" as="sourcePoint" />
            <mxPoint x="248.64" y="632.8199999999999" as="targetPoint" />
          </mxGeometry>
        </mxCell>
        <mxCell id="L3rix1qcFKLYm2jVyzR--115" style="rounded=0;orthogonalLoop=1;jettySize=auto;html=1;endArrow=open;endFill=0;exitX=0.5;exitY=1;exitDx=0;exitDy=0;" parent="1" source="L3rix1qcFKLYm2jVyzR--99" edge="1">
          <mxGeometry relative="1" as="geometry">
            <mxPoint x="142.14" y="630.8199999999999" as="sourcePoint" />
            <mxPoint x="284.14" y="632.8199999999999" as="targetPoint" />
          </mxGeometry>
        </mxCell>
        <mxCell id="L3rix1qcFKLYm2jVyzR--116" style="rounded=0;orthogonalLoop=1;jettySize=auto;html=1;endArrow=open;endFill=0;exitX=0.562;exitY=0.989;exitDx=0;exitDy=0;exitPerimeter=0;" parent="1" source="L3rix1qcFKLYm2jVyzR--100" edge="1">
          <mxGeometry relative="1" as="geometry">
            <mxPoint x="369.14" y="610.8199999999999" as="sourcePoint" />
            <mxPoint x="324.14" y="632.8199999999999" as="targetPoint" />
          </mxGeometry>
        </mxCell>
        <mxCell id="L3rix1qcFKLYm2jVyzR--119" value="權限" style="shape=rect;html=1;rounded=1;whiteSpace=wrap;align=center;aspect=fixed;" parent="1" vertex="1">
          <mxGeometry x="450.88" y="554.8199999999999" width="76" height="38" as="geometry" />
        </mxCell>
        <mxCell id="L3rix1qcFKLYm2jVyzR--120" style="rounded=0;orthogonalLoop=1;jettySize=auto;html=1;endArrow=open;endFill=0;entryX=0.5;entryY=0;entryDx=0;entryDy=0;" parent="1" target="L3rix1qcFKLYm2jVyzR--119" edge="1">
          <mxGeometry relative="1" as="geometry">
            <mxPoint x="364.0799999999999" y="502.81999999999994" as="sourcePoint" />
            <mxPoint x="424.0799999999999" y="572.8199999999999" as="targetPoint" />
          </mxGeometry>
        </mxCell>
        <mxCell id="L3rix1qcFKLYm2jVyzR--121" style="rounded=0;orthogonalLoop=1;jettySize=auto;html=1;endArrow=open;endFill=0;exitX=0.5;exitY=1;exitDx=0;exitDy=0;" parent="1" source="L3rix1qcFKLYm2jVyzR--119" edge="1">
          <mxGeometry relative="1" as="geometry">
            <mxPoint x="374.0799999999999" y="512.8199999999999" as="sourcePoint" />
            <mxPoint x="352.64" y="632.8199999999999" as="targetPoint" />
          </mxGeometry>
        </mxCell>
        <mxCell id="L3rix1qcFKLYm2jVyzR--152" value="帳號" style="shape=rect;html=1;rounded=1;whiteSpace=wrap;align=center;aspect=fixed;" parent="1" vertex="1">
          <mxGeometry x="-23.21" y="810" width="76" height="38" as="geometry" />
        </mxCell>
        <mxCell id="L3rix1qcFKLYm2jVyzR--153" value="密碼" style="shape=rect;html=1;rounded=1;whiteSpace=wrap;align=center;aspect=fixed;" parent="1" vertex="1">
          <mxGeometry x="-23.630000000000003" y="857" width="76" height="38" as="geometry" />
        </mxCell>
        <mxCell id="L3rix1qcFKLYm2jVyzR--231" style="edgeStyle=orthogonalEdgeStyle;rounded=0;orthogonalLoop=1;jettySize=auto;html=1;startArrow=open;startFill=0;endArrow=none;endFill=0;" parent="1" source="L3rix1qcFKLYm2jVyzR--154" edge="1">
          <mxGeometry relative="1" as="geometry">
            <mxPoint x="88.57" y="913" as="targetPoint" />
          </mxGeometry>
        </mxCell>
        <mxCell id="L3rix1qcFKLYm2jVyzR--233" style="edgeStyle=orthogonalEdgeStyle;rounded=0;orthogonalLoop=1;jettySize=auto;html=1;endArrow=open;endFill=0;" parent="1" source="L3rix1qcFKLYm2jVyzR--154" edge="1">
          <mxGeometry relative="1" as="geometry">
            <mxPoint x="238.57" y="913" as="targetPoint" />
          </mxGeometry>
        </mxCell>
        <mxCell id="L3rix1qcFKLYm2jVyzR--154" value="系統帶入" style="shape=rect;html=1;rounded=1;whiteSpace=wrap;align=center;aspect=fixed;" parent="1" vertex="1">
          <mxGeometry x="128.81" y="894" width="76" height="38" as="geometry" />
        </mxCell>
        <mxCell id="L3rix1qcFKLYm2jVyzR--166" value="權限" style="shape=rect;html=1;rounded=1;whiteSpace=wrap;align=center;aspect=fixed;" parent="1" vertex="1">
          <mxGeometry x="-23.209999999999972" y="942" width="76" height="38" as="geometry" />
        </mxCell>
        <mxCell id="L3rix1qcFKLYm2jVyzR--171" value="管理者註冊帳號" style="shape=rect;html=1;rounded=1;whiteSpace=wrap;align=center;aspect=fixed;" parent="1" vertex="1">
          <mxGeometry x="189.81" y="360" width="100" height="50" as="geometry" />
        </mxCell>
        <mxCell id="L3rix1qcFKLYm2jVyzR--184" style="edgeStyle=orthogonalEdgeStyle;rounded=0;orthogonalLoop=1;jettySize=auto;html=1;entryX=1;entryY=0.5;entryDx=0;entryDy=0;endArrow=open;endFill=0;" parent="1" source="L3rix1qcFKLYm2jVyzR--180" target="L3rix1qcFKLYm2jVyzR--183" edge="1">
          <mxGeometry relative="1" as="geometry" />
        </mxCell>
        <mxCell id="L3rix1qcFKLYm2jVyzR--180" value="程式檢查" style="shape=rect;html=1;rounded=1;whiteSpace=wrap;align=center;aspect=fixed;" parent="1" vertex="1">
          <mxGeometry x="-70.00000000000006" y="534.9999999999999" width="100" height="50" as="geometry" />
        </mxCell>
        <mxCell id="L3rix1qcFKLYm2jVyzR--191" style="edgeStyle=orthogonalEdgeStyle;rounded=0;orthogonalLoop=1;jettySize=auto;html=1;entryX=0.5;entryY=0;entryDx=0;entryDy=0;endArrow=open;endFill=0;" parent="1" source="L3rix1qcFKLYm2jVyzR--181" target="L3rix1qcFKLYm2jVyzR--189" edge="1">
          <mxGeometry relative="1" as="geometry">
            <Array as="points">
              <mxPoint x="-105" y="730" />
            </Array>
          </mxGeometry>
        </mxCell>
        <mxCell id="L3rix1qcFKLYm2jVyzR--181" value="是否為公司管理者" style="shape=rect;html=1;rounded=1;whiteSpace=wrap;align=center;aspect=fixed;" parent="1" vertex="1">
          <mxGeometry x="-155.44000000000005" y="619.9999999999999" width="100" height="50" as="geometry" />
        </mxCell>
        <mxCell id="L3rix1qcFKLYm2jVyzR--182" style="rounded=0;orthogonalLoop=1;jettySize=auto;html=1;endArrow=open;endFill=0;entryX=0.5;entryY=0;entryDx=0;entryDy=0;" parent="1" target="L3rix1qcFKLYm2jVyzR--180" edge="1">
          <mxGeometry relative="1" as="geometry">
            <mxPoint x="-20" y="490" as="sourcePoint" />
            <mxPoint x="-68.78" y="516" as="targetPoint" />
          </mxGeometry>
        </mxCell>
        <mxCell id="L3rix1qcFKLYm2jVyzR--185" style="edgeStyle=orthogonalEdgeStyle;rounded=0;orthogonalLoop=1;jettySize=auto;html=1;entryX=0;entryY=0;entryDx=0;entryDy=0;endArrow=open;endFill=0;" parent="1" source="L3rix1qcFKLYm2jVyzR--183" target="L3rix1qcFKLYm2jVyzR--11" edge="1">
          <mxGeometry relative="1" as="geometry">
            <Array as="points">
              <mxPoint x="-228" y="120" />
            </Array>
          </mxGeometry>
        </mxCell>
        <mxCell id="L3rix1qcFKLYm2jVyzR--186" style="edgeStyle=orthogonalEdgeStyle;rounded=0;orthogonalLoop=1;jettySize=auto;html=1;endArrow=open;endFill=0;" parent="1" source="L3rix1qcFKLYm2jVyzR--183" target="L3rix1qcFKLYm2jVyzR--181" edge="1">
          <mxGeometry relative="1" as="geometry">
            <Array as="points">
              <mxPoint x="-228" y="645" />
            </Array>
          </mxGeometry>
        </mxCell>
        <mxCell id="L3rix1qcFKLYm2jVyzR--183" value="" style="rhombus;whiteSpace=wrap;html=1;aspect=fixed;" parent="1" vertex="1">
          <mxGeometry x="-256.44" y="539.98" width="56" height="40.04" as="geometry" />
        </mxCell>
        <mxCell id="L3rix1qcFKLYm2jVyzR--187" value="[ 錯誤 ]" style="text;html=1;strokeColor=none;fillColor=none;align=center;verticalAlign=middle;whiteSpace=wrap;rounded=0;" parent="1" vertex="1">
          <mxGeometry x="-230" y="509.97999999999996" width="60" height="30" as="geometry" />
        </mxCell>
        <mxCell id="L3rix1qcFKLYm2jVyzR--188" value="[ 正確 ]" style="text;html=1;strokeColor=none;fillColor=none;align=center;verticalAlign=middle;whiteSpace=wrap;rounded=0;" parent="1" vertex="1">
          <mxGeometry x="-230" y="585" width="60" height="30" as="geometry" />
        </mxCell>
        <mxCell id="L3rix1qcFKLYm2jVyzR--195" style="edgeStyle=orthogonalEdgeStyle;rounded=0;orthogonalLoop=1;jettySize=auto;html=1;entryX=0;entryY=0.5;entryDx=0;entryDy=0;endArrow=open;endFill=0;" parent="1" source="L3rix1qcFKLYm2jVyzR--189" target="L3rix1qcFKLYm2jVyzR--193" edge="1">
          <mxGeometry relative="1" as="geometry" />
        </mxCell>
        <mxCell id="L3rix1qcFKLYm2jVyzR--244" style="edgeStyle=orthogonalEdgeStyle;rounded=0;orthogonalLoop=1;jettySize=auto;html=1;entryX=0;entryY=0.5;entryDx=0;entryDy=0;entryPerimeter=0;endArrow=open;endFill=0;" parent="1" source="L3rix1qcFKLYm2jVyzR--189" target="L3rix1qcFKLYm2jVyzR--201" edge="1">
          <mxGeometry relative="1" as="geometry">
            <Array as="points">
              <mxPoint x="-228" y="1014" />
            </Array>
          </mxGeometry>
        </mxCell>
        <mxCell id="L3rix1qcFKLYm2jVyzR--189" value="" style="rhombus;whiteSpace=wrap;html=1;aspect=fixed;" parent="1" vertex="1">
          <mxGeometry x="-133.44" y="730" width="56" height="40.04" as="geometry" />
        </mxCell>
        <mxCell id="L3rix1qcFKLYm2jVyzR--266" style="edgeStyle=orthogonalEdgeStyle;rounded=0;orthogonalLoop=1;jettySize=auto;html=1;endArrow=open;endFill=0;" parent="1" source="L3rix1qcFKLYm2jVyzR--190" target="L3rix1qcFKLYm2jVyzR--265" edge="1">
          <mxGeometry relative="1" as="geometry" />
        </mxCell>
        <mxCell id="L3rix1qcFKLYm2jVyzR--190" value="系統生成使用者ID" style="shape=rect;html=1;rounded=1;whiteSpace=wrap;align=center;aspect=fixed;" parent="1" vertex="1">
          <mxGeometry x="467.99999999999994" y="694.9999999999999" width="100" height="50" as="geometry" />
        </mxCell>
        <mxCell id="L3rix1qcFKLYm2jVyzR--202" style="edgeStyle=orthogonalEdgeStyle;rounded=0;orthogonalLoop=1;jettySize=auto;html=1;entryX=0.5;entryY=0;entryDx=0;entryDy=0;exitX=0.5;exitY=1;exitDx=0;exitDy=0;endArrow=open;endFill=0;" parent="1" source="L3rix1qcFKLYm2jVyzR--193" target="L3rix1qcFKLYm2jVyzR--194" edge="1">
          <mxGeometry relative="1" as="geometry">
            <Array as="points">
              <mxPoint x="68" y="800" />
              <mxPoint x="-190" y="800" />
            </Array>
          </mxGeometry>
        </mxCell>
        <mxCell id="L3rix1qcFKLYm2jVyzR--193" value="是否註冊檢核者" style="shape=rect;html=1;rounded=1;whiteSpace=wrap;align=center;aspect=fixed;" parent="1" vertex="1">
          <mxGeometry x="7.25" y="719.63" width="121.56" height="60.78" as="geometry" />
        </mxCell>
        <mxCell id="L3rix1qcFKLYm2jVyzR--242" style="edgeStyle=orthogonalEdgeStyle;rounded=0;orthogonalLoop=1;jettySize=auto;html=1;endArrow=open;endFill=0;" parent="1" source="L3rix1qcFKLYm2jVyzR--194" edge="1">
          <mxGeometry relative="1" as="geometry">
            <mxPoint x="-60" y="900" as="targetPoint" />
            <Array as="points">
              <mxPoint x="-150" y="900" />
              <mxPoint x="-150" y="900" />
            </Array>
          </mxGeometry>
        </mxCell>
        <mxCell id="L3rix1qcFKLYm2jVyzR--194" value="" style="rhombus;whiteSpace=wrap;html=1;aspect=fixed;" parent="1" vertex="1">
          <mxGeometry x="-218.44000000000003" y="880" width="56" height="40.04" as="geometry" />
        </mxCell>
        <mxCell id="L3rix1qcFKLYm2jVyzR--198" value="[ 否 ]" style="text;html=1;strokeColor=none;fillColor=none;align=center;verticalAlign=middle;whiteSpace=wrap;rounded=0;" parent="1" vertex="1">
          <mxGeometry x="-188.44" y="719.63" width="60" height="30" as="geometry" />
        </mxCell>
        <mxCell id="L3rix1qcFKLYm2jVyzR--199" value="[ 是 ]" style="text;html=1;strokeColor=none;fillColor=none;align=center;verticalAlign=middle;whiteSpace=wrap;rounded=0;" parent="1" vertex="1">
          <mxGeometry x="-83.21" y="719.63" width="60" height="30" as="geometry" />
        </mxCell>
        <mxCell id="L3rix1qcFKLYm2jVyzR--201" value="" style="html=1;shape=mxgraph.sysml.actFinal;strokeWidth=2;verticalLabelPosition=bottom;verticalAlignment=top;aspect=fixed;" parent="1" vertex="1">
          <mxGeometry x="504.50000000000006" y="1000" width="27" height="27" as="geometry" />
        </mxCell>
        <mxCell id="L3rix1qcFKLYm2jVyzR--204" value="[ 是 ]" style="text;html=1;strokeColor=none;fillColor=none;align=center;verticalAlign=middle;whiteSpace=wrap;rounded=0;" parent="1" vertex="1">
          <mxGeometry x="-170" y="870" width="60" height="30" as="geometry" />
        </mxCell>
        <mxCell id="L3rix1qcFKLYm2jVyzR--205" value="[ 否 ]" style="text;html=1;strokeColor=none;fillColor=none;align=center;verticalAlign=middle;whiteSpace=wrap;rounded=0;" parent="1" vertex="1">
          <mxGeometry x="-200.44" y="922" width="60" height="30" as="geometry" />
        </mxCell>
        <mxCell id="L3rix1qcFKLYm2jVyzR--207" value="公司統編" style="shape=rect;html=1;rounded=1;whiteSpace=wrap;align=center;aspect=fixed;" parent="1" vertex="1">
          <mxGeometry x="289.81" y="857.0000000000001" width="76" height="38" as="geometry" />
        </mxCell>
        <mxCell id="L3rix1qcFKLYm2jVyzR--208" value="公司" style="shape=rect;html=1;rounded=1;whiteSpace=wrap;align=center;aspect=fixed;" parent="1" vertex="1">
          <mxGeometry x="290.81" y="904.0000000000001" width="76" height="38" as="geometry" />
        </mxCell>
        <mxCell id="L3rix1qcFKLYm2jVyzR--214" value="地址(公司)" style="shape=rect;html=1;rounded=1;whiteSpace=wrap;align=center;aspect=fixed;" parent="1" vertex="1">
          <mxGeometry x="290.81" y="952.0000000000001" width="76" height="38" as="geometry" />
        </mxCell>
        <mxCell id="L3rix1qcFKLYm2jVyzR--221" style="rounded=0;orthogonalLoop=1;jettySize=auto;html=1;endArrow=open;endFill=0;entryX=0;entryY=0.5;entryDx=0;entryDy=0;edgeStyle=orthogonalEdgeStyle;" parent="1" target="L3rix1qcFKLYm2jVyzR--190" edge="1">
          <mxGeometry relative="1" as="geometry">
            <mxPoint x="270" y="640" as="sourcePoint" />
            <mxPoint x="470" y="841" as="targetPoint" />
            <Array as="points">
              <mxPoint x="270" y="720" />
            </Array>
          </mxGeometry>
        </mxCell>
        <mxCell id="L3rix1qcFKLYm2jVyzR--223" value="" style="endArrow=none;html=1;rounded=0;strokeWidth=5;" parent="1" edge="1">
          <mxGeometry width="50" height="50" relative="1" as="geometry">
            <mxPoint x="-61.650000000000055" y="847.3900000000001" as="sourcePoint" />
            <mxPoint x="-61.529999999999994" y="985.71" as="targetPoint" />
          </mxGeometry>
        </mxCell>
        <mxCell id="L3rix1qcFKLYm2jVyzR--224" style="rounded=0;orthogonalLoop=1;jettySize=auto;html=1;endArrow=open;endFill=0;entryX=0;entryY=0.5;entryDx=0;entryDy=0;" parent="1" target="L3rix1qcFKLYm2jVyzR--166" edge="1">
          <mxGeometry relative="1" as="geometry">
            <mxPoint x="-61.43" y="912" as="sourcePoint" />
            <mxPoint x="213.57" y="975" as="targetPoint" />
          </mxGeometry>
        </mxCell>
        <mxCell id="L3rix1qcFKLYm2jVyzR--225" style="rounded=0;orthogonalLoop=1;jettySize=auto;html=1;endArrow=open;endFill=0;entryX=0;entryY=0.5;entryDx=0;entryDy=0;" parent="1" target="L3rix1qcFKLYm2jVyzR--153" edge="1">
          <mxGeometry relative="1" as="geometry">
            <mxPoint x="-61.43" y="912" as="sourcePoint" />
            <mxPoint x="-13.43" y="971" as="targetPoint" />
          </mxGeometry>
        </mxCell>
        <mxCell id="L3rix1qcFKLYm2jVyzR--226" style="rounded=0;orthogonalLoop=1;jettySize=auto;html=1;endArrow=open;endFill=0;entryX=0;entryY=1;entryDx=0;entryDy=0;" parent="1" target="L3rix1qcFKLYm2jVyzR--152" edge="1">
          <mxGeometry relative="1" as="geometry">
            <mxPoint x="-61.43" y="912" as="sourcePoint" />
            <mxPoint x="-13.43" y="923" as="targetPoint" />
          </mxGeometry>
        </mxCell>
        <mxCell id="L3rix1qcFKLYm2jVyzR--227" value="" style="endArrow=none;html=1;rounded=0;strokeWidth=5;" parent="1" edge="1">
          <mxGeometry width="50" height="50" relative="1" as="geometry">
            <mxPoint x="89.94999999999996" y="847.3900000000001" as="sourcePoint" />
            <mxPoint x="90.07000000000002" y="985.71" as="targetPoint" />
          </mxGeometry>
        </mxCell>
        <mxCell id="L3rix1qcFKLYm2jVyzR--228" style="rounded=0;orthogonalLoop=1;jettySize=auto;html=1;endArrow=open;endFill=0;exitX=1;exitY=0.5;exitDx=0;exitDy=0;" parent="1" source="L3rix1qcFKLYm2jVyzR--152" edge="1">
          <mxGeometry relative="1" as="geometry">
            <mxPoint x="-51.43" y="922" as="sourcePoint" />
            <mxPoint x="88.57" y="892" as="targetPoint" />
          </mxGeometry>
        </mxCell>
        <mxCell id="L3rix1qcFKLYm2jVyzR--229" style="rounded=0;orthogonalLoop=1;jettySize=auto;html=1;endArrow=open;endFill=0;exitX=1;exitY=0.5;exitDx=0;exitDy=0;" parent="1" source="L3rix1qcFKLYm2jVyzR--153" edge="1">
          <mxGeometry relative="1" as="geometry">
            <mxPoint x="-41.43" y="932" as="sourcePoint" />
            <mxPoint x="88.57" y="912" as="targetPoint" />
          </mxGeometry>
        </mxCell>
        <mxCell id="L3rix1qcFKLYm2jVyzR--230" style="rounded=0;orthogonalLoop=1;jettySize=auto;html=1;endArrow=open;endFill=0;exitX=1;exitY=0.5;exitDx=0;exitDy=0;" parent="1" source="L3rix1qcFKLYm2jVyzR--166" edge="1">
          <mxGeometry relative="1" as="geometry">
            <mxPoint x="-31.43" y="942" as="sourcePoint" />
            <mxPoint x="88.57" y="942" as="targetPoint" />
          </mxGeometry>
        </mxCell>
        <mxCell id="L3rix1qcFKLYm2jVyzR--232" value="" style="endArrow=none;html=1;rounded=0;strokeWidth=5;" parent="1" edge="1">
          <mxGeometry width="50" height="50" relative="1" as="geometry">
            <mxPoint x="240.73999999999995" y="847.3900000000001" as="sourcePoint" />
            <mxPoint x="240.86" y="985.71" as="targetPoint" />
          </mxGeometry>
        </mxCell>
        <mxCell id="L3rix1qcFKLYm2jVyzR--234" style="rounded=0;orthogonalLoop=1;jettySize=auto;html=1;startArrow=open;startFill=0;endArrow=none;endFill=0;exitX=0;exitY=0.5;exitDx=0;exitDy=0;" parent="1" source="L3rix1qcFKLYm2jVyzR--207" edge="1">
          <mxGeometry relative="1" as="geometry">
            <mxPoint x="238.57" y="912" as="targetPoint" />
            <mxPoint x="138.57" y="923" as="sourcePoint" />
          </mxGeometry>
        </mxCell>
        <mxCell id="L3rix1qcFKLYm2jVyzR--235" style="rounded=0;orthogonalLoop=1;jettySize=auto;html=1;startArrow=open;startFill=0;endArrow=none;endFill=0;exitX=0;exitY=0.5;exitDx=0;exitDy=0;" parent="1" source="L3rix1qcFKLYm2jVyzR--208" edge="1">
          <mxGeometry relative="1" as="geometry">
            <mxPoint x="238.57" y="912" as="targetPoint" />
            <mxPoint x="299.57" y="886" as="sourcePoint" />
          </mxGeometry>
        </mxCell>
        <mxCell id="L3rix1qcFKLYm2jVyzR--236" style="rounded=0;orthogonalLoop=1;jettySize=auto;html=1;startArrow=open;startFill=0;endArrow=none;endFill=0;exitX=0;exitY=0.5;exitDx=0;exitDy=0;" parent="1" source="L3rix1qcFKLYm2jVyzR--214" edge="1">
          <mxGeometry relative="1" as="geometry">
            <mxPoint x="238.57" y="912" as="targetPoint" />
            <mxPoint x="309.57" y="896" as="sourcePoint" />
          </mxGeometry>
        </mxCell>
        <mxCell id="L3rix1qcFKLYm2jVyzR--237" value="" style="endArrow=none;html=1;rounded=0;strokeWidth=5;" parent="1" edge="1">
          <mxGeometry width="50" height="50" relative="1" as="geometry">
            <mxPoint x="410.57" y="847.3900000000001" as="sourcePoint" />
            <mxPoint x="410.69" y="985.71" as="targetPoint" />
          </mxGeometry>
        </mxCell>
        <mxCell id="L3rix1qcFKLYm2jVyzR--238" style="rounded=0;orthogonalLoop=1;jettySize=auto;html=1;startArrow=open;startFill=0;endArrow=none;endFill=0;entryX=1;entryY=0.5;entryDx=0;entryDy=0;" parent="1" target="L3rix1qcFKLYm2jVyzR--207" edge="1">
          <mxGeometry relative="1" as="geometry">
            <mxPoint x="248.57" y="922" as="targetPoint" />
            <mxPoint x="408.57" y="912" as="sourcePoint" />
          </mxGeometry>
        </mxCell>
        <mxCell id="L3rix1qcFKLYm2jVyzR--239" style="rounded=0;orthogonalLoop=1;jettySize=auto;html=1;startArrow=open;startFill=0;endArrow=none;endFill=0;entryX=1;entryY=0.5;entryDx=0;entryDy=0;" parent="1" target="L3rix1qcFKLYm2jVyzR--208" edge="1">
          <mxGeometry relative="1" as="geometry">
            <mxPoint x="338.57" y="952" as="targetPoint" />
            <mxPoint x="408.57" y="922" as="sourcePoint" />
          </mxGeometry>
        </mxCell>
        <mxCell id="L3rix1qcFKLYm2jVyzR--240" style="rounded=0;orthogonalLoop=1;jettySize=auto;html=1;startArrow=open;startFill=0;endArrow=none;endFill=0;entryX=1;entryY=0.5;entryDx=0;entryDy=0;" parent="1" target="L3rix1qcFKLYm2jVyzR--214" edge="1">
          <mxGeometry relative="1" as="geometry">
            <mxPoint x="258.57" y="932" as="targetPoint" />
            <mxPoint x="408.57" y="942" as="sourcePoint" />
          </mxGeometry>
        </mxCell>
        <mxCell id="L3rix1qcFKLYm2jVyzR--241" style="edgeStyle=orthogonalEdgeStyle;rounded=0;orthogonalLoop=1;jettySize=auto;html=1;endArrow=open;endFill=0;entryX=0;entryY=0.5;entryDx=0;entryDy=0;" parent="1" target="L3rix1qcFKLYm2jVyzR--190" edge="1">
          <mxGeometry relative="1" as="geometry">
            <mxPoint x="230" y="971" as="targetPoint" />
            <mxPoint x="410" y="920" as="sourcePoint" />
          </mxGeometry>
        </mxCell>
        <mxCell id="L3rix1qcFKLYm2jVyzR--251" style="edgeStyle=orthogonalEdgeStyle;rounded=0;orthogonalLoop=1;jettySize=auto;html=1;entryX=0;entryY=0.5;entryDx=0;entryDy=0;endArrow=open;endFill=0;" parent="1" source="L3rix1qcFKLYm2jVyzR--245" target="L3rix1qcFKLYm2jVyzR--246" edge="1">
          <mxGeometry relative="1" as="geometry" />
        </mxCell>
        <mxCell id="L3rix1qcFKLYm2jVyzR--245" value="登入/登出選擇" style="shape=rect;html=1;rounded=1;whiteSpace=wrap;align=center;aspect=fixed;" parent="1" vertex="1">
          <mxGeometry x="102.80000000000001" y="28.5" width="100" height="50" as="geometry" />
        </mxCell>
        <mxCell id="L3rix1qcFKLYm2jVyzR--252" style="edgeStyle=orthogonalEdgeStyle;rounded=0;orthogonalLoop=1;jettySize=auto;html=1;entryX=0.5;entryY=0;entryDx=0;entryDy=0;endArrow=open;endFill=0;" parent="1" source="L3rix1qcFKLYm2jVyzR--246" target="L3rix1qcFKLYm2jVyzR--11" edge="1">
          <mxGeometry relative="1" as="geometry" />
        </mxCell>
        <mxCell id="L3rix1qcFKLYm2jVyzR--256" style="edgeStyle=orthogonalEdgeStyle;rounded=0;orthogonalLoop=1;jettySize=auto;html=1;entryX=0;entryY=0.5;entryDx=0;entryDy=0;endArrow=open;endFill=0;" parent="1" source="L3rix1qcFKLYm2jVyzR--246" target="L3rix1qcFKLYm2jVyzR--254" edge="1">
          <mxGeometry relative="1" as="geometry" />
        </mxCell>
        <mxCell id="L3rix1qcFKLYm2jVyzR--246" value="" style="rhombus;whiteSpace=wrap;html=1;aspect=fixed;" parent="1" vertex="1">
          <mxGeometry x="268.55" y="33.480000000000075" width="56" height="40.04" as="geometry" />
        </mxCell>
        <mxCell id="L3rix1qcFKLYm2jVyzR--253" value="[ 登入 ]" style="text;html=1;strokeColor=none;fillColor=none;align=center;verticalAlign=middle;whiteSpace=wrap;rounded=0;" parent="1" vertex="1">
          <mxGeometry x="236.04000000000002" y="67.98000000000002" width="60" height="30" as="geometry" />
        </mxCell>
        <mxCell id="L3rix1qcFKLYm2jVyzR--263" style="edgeStyle=orthogonalEdgeStyle;rounded=0;orthogonalLoop=1;jettySize=auto;html=1;entryX=1;entryY=0.5;entryDx=0;entryDy=0;entryPerimeter=0;endArrow=open;endFill=0;" parent="1" source="L3rix1qcFKLYm2jVyzR--254" target="L3rix1qcFKLYm2jVyzR--201" edge="1">
          <mxGeometry relative="1" as="geometry">
            <mxPoint x="510" y="153.49999999999977" as="targetPoint" />
            <Array as="points">
              <mxPoint x="620" y="53" />
              <mxPoint x="620" y="1014" />
            </Array>
          </mxGeometry>
        </mxCell>
        <mxCell id="L3rix1qcFKLYm2jVyzR--254" value="系統登出程式" style="shape=rect;html=1;rounded=1;whiteSpace=wrap;align=center;aspect=fixed;" parent="1" vertex="1">
          <mxGeometry x="379.8" y="28.50000000000003" width="100" height="50" as="geometry" />
        </mxCell>
        <mxCell id="L3rix1qcFKLYm2jVyzR--255" value="[ 登出 ]" style="text;html=1;strokeColor=none;fillColor=none;align=center;verticalAlign=middle;whiteSpace=wrap;rounded=0;" parent="1" vertex="1">
          <mxGeometry x="319.8" y="26.00000000000003" width="60" height="30" as="geometry" />
        </mxCell>
        <mxCell id="L3rix1qcFKLYm2jVyzR--267" style="edgeStyle=orthogonalEdgeStyle;rounded=0;orthogonalLoop=1;jettySize=auto;html=1;entryX=0.5;entryY=0;entryDx=0;entryDy=0;entryPerimeter=0;endArrow=open;endFill=0;" parent="1" source="L3rix1qcFKLYm2jVyzR--265" target="L3rix1qcFKLYm2jVyzR--201" edge="1">
          <mxGeometry relative="1" as="geometry" />
        </mxCell>
        <mxCell id="L3rix1qcFKLYm2jVyzR--265" value="資料庫帳戶新增" style="shape=rect;html=1;rounded=1;whiteSpace=wrap;align=center;aspect=fixed;" parent="1" vertex="1">
          <mxGeometry x="467.99999999999994" y="778.9999999999999" width="100" height="50" as="geometry" />
        </mxCell>
        <mxCell id="P2uVsFz5nfeHJqfZKpyq-1" value="姓名" style="shape=rect;html=1;rounded=1;whiteSpace=wrap;align=center;aspect=fixed;" parent="1" vertex="1">
          <mxGeometry x="530.64" y="554.8199999999999" width="76" height="38" as="geometry" />
        </mxCell>
        <mxCell id="P2uVsFz5nfeHJqfZKpyq-2" style="rounded=0;orthogonalLoop=1;jettySize=auto;html=1;endArrow=open;endFill=0;entryX=0.5;entryY=0;entryDx=0;entryDy=0;" parent="1" target="P2uVsFz5nfeHJqfZKpyq-1" edge="1">
          <mxGeometry relative="1" as="geometry">
            <mxPoint x="372.64" y="502.81999999999994" as="sourcePoint" />
            <mxPoint x="498.64" y="564.8199999999999" as="targetPoint" />
          </mxGeometry>
        </mxCell>
        <mxCell id="P2uVsFz5nfeHJqfZKpyq-3" style="rounded=0;orthogonalLoop=1;jettySize=auto;html=1;endArrow=open;endFill=0;exitX=0.5;exitY=1;exitDx=0;exitDy=0;" parent="1" source="P2uVsFz5nfeHJqfZKpyq-1" edge="1">
          <mxGeometry relative="1" as="geometry">
            <mxPoint x="498.64" y="602.8199999999999" as="sourcePoint" />
            <mxPoint x="372.64" y="632.8199999999999" as="targetPoint" />
          </mxGeometry>
        </mxCell>
        <mxCell id="P2uVsFz5nfeHJqfZKpyq-9" value="姓名" style="shape=rect;html=1;rounded=1;whiteSpace=wrap;align=center;aspect=fixed;" parent="1" vertex="1">
          <mxGeometry x="-23.630000000000045" y="900" width="76" height="38" as="geometry" />
        </mxCell>
        <mxCell id="P2uVsFz5nfeHJqfZKpyq-10" style="rounded=0;orthogonalLoop=1;jettySize=auto;html=1;endArrow=open;endFill=0;entryX=0;entryY=0.5;entryDx=0;entryDy=0;" parent="1" target="P2uVsFz5nfeHJqfZKpyq-9" edge="1">
          <mxGeometry relative="1" as="geometry">
            <mxPoint x="-61.43" y="912" as="sourcePoint" />
            <mxPoint x="-13.43" y="886" as="targetPoint" />
          </mxGeometry>
        </mxCell>
        <mxCell id="P2uVsFz5nfeHJqfZKpyq-11" style="rounded=0;orthogonalLoop=1;jettySize=auto;html=1;endArrow=open;endFill=0;exitX=1;exitY=0.5;exitDx=0;exitDy=0;" parent="1" source="P2uVsFz5nfeHJqfZKpyq-9" edge="1">
          <mxGeometry relative="1" as="geometry">
            <mxPoint x="-51.43" y="922" as="sourcePoint" />
            <mxPoint x="88.57" y="919" as="targetPoint" />
          </mxGeometry>
        </mxCell>
        <mxCell id="fvnQoVcxm32_NNb4MGqW-4" style="edgeStyle=orthogonalEdgeStyle;rounded=0;orthogonalLoop=1;jettySize=auto;html=1;entryX=0.5;entryY=0;entryDx=0;entryDy=0;endArrow=open;endFill=0;" edge="1" parent="1" source="fvnQoVcxm32_NNb4MGqW-1" target="fvnQoVcxm32_NNb4MGqW-3">
          <mxGeometry relative="1" as="geometry" />
        </mxCell>
        <mxCell id="fvnQoVcxm32_NNb4MGqW-1" value="發票檢核者是否有帳號" style="shape=rect;html=1;rounded=1;whiteSpace=wrap;align=center;aspect=fixed;" vertex="1" parent="1">
          <mxGeometry x="8.8" y="141" width="130" height="65" as="geometry" />
        </mxCell>
        <mxCell id="fvnQoVcxm32_NNb4MGqW-5" style="edgeStyle=orthogonalEdgeStyle;rounded=0;orthogonalLoop=1;jettySize=auto;html=1;endArrow=open;endFill=0;" edge="1" parent="1" source="fvnQoVcxm32_NNb4MGqW-3" target="L3rix1qcFKLYm2jVyzR--68">
          <mxGeometry relative="1" as="geometry">
            <Array as="points">
              <mxPoint x="297" y="230" />
            </Array>
          </mxGeometry>
        </mxCell>
        <mxCell id="fvnQoVcxm32_NNb4MGqW-8" style="edgeStyle=orthogonalEdgeStyle;rounded=0;orthogonalLoop=1;jettySize=auto;html=1;endArrow=none;endFill=0;" edge="1" parent="1" source="fvnQoVcxm32_NNb4MGqW-3">
          <mxGeometry relative="1" as="geometry">
            <mxPoint x="-10" y="340" as="targetPoint" />
          </mxGeometry>
        </mxCell>
        <mxCell id="fvnQoVcxm32_NNb4MGqW-3" value="" style="rhombus;whiteSpace=wrap;html=1;aspect=fixed;" vertex="1" parent="1">
          <mxGeometry x="210.52" y="210.00000000000009" width="56" height="40.04" as="geometry" />
        </mxCell>
        <mxCell id="fvnQoVcxm32_NNb4MGqW-6" value="[ 有 ]" style="text;html=1;strokeColor=none;fillColor=none;align=center;verticalAlign=middle;whiteSpace=wrap;rounded=0;" vertex="1" parent="1">
          <mxGeometry x="165.8" y="200" width="60" height="30" as="geometry" />
        </mxCell>
        <mxCell id="fvnQoVcxm32_NNb4MGqW-7" value="[ 無 ]" style="text;html=1;strokeColor=none;fillColor=none;align=center;verticalAlign=middle;whiteSpace=wrap;rounded=0;" vertex="1" parent="1">
          <mxGeometry x="250" y="199.99999999999997" width="60" height="30" as="geometry" />
        </mxCell>
      </root>
    </mxGraphModel>
  </diagram>
  <diagram id="WiqfNrrEjxTonThe47bQ" name="掃描發票上傳">
    <mxGraphModel dx="880" dy="484" grid="1" gridSize="10" guides="1" tooltips="1" connect="1" arrows="1" fold="1" page="1" pageScale="1" pageWidth="827" pageHeight="1169" math="0" shadow="0">
      <root>
        <mxCell id="0" />
        <mxCell id="1" parent="0" />
        <mxCell id="ZAq49iZOmX_xIdGRycD7-1" value="掃描發票上傳" style="shape=note;size=20;whiteSpace=wrap;html=1;" parent="1" vertex="1">
          <mxGeometry x="440" y="110" width="140" height="70" as="geometry" />
        </mxCell>
        <mxCell id="-m-PF1ndhdXWIAwxcyeY-1" style="edgeStyle=orthogonalEdgeStyle;rounded=0;orthogonalLoop=1;jettySize=auto;html=1;entryX=0.5;entryY=0;entryDx=0;entryDy=0;" parent="1" source="ZAq49iZOmX_xIdGRycD7-3" target="ZAq49iZOmX_xIdGRycD7-46" edge="1">
          <mxGeometry relative="1" as="geometry" />
        </mxCell>
        <mxCell id="ZAq49iZOmX_xIdGRycD7-3" value="" style="shape=ellipse;html=1;fillColor=strokeColor;strokeWidth=2;verticalLabelPosition=bottom;verticalAlignment=top;perimeter=ellipsePerimeter;aspect=fixed;" parent="1" vertex="1">
          <mxGeometry x="283" y="140" width="27" height="27" as="geometry" />
        </mxCell>
        <mxCell id="ZAq49iZOmX_xIdGRycD7-4" value="" style="html=1;shape=mxgraph.sysml.actFinal;strokeWidth=2;verticalLabelPosition=bottom;verticalAlignment=top;aspect=fixed;" parent="1" vertex="1">
          <mxGeometry x="283.75" y="444.5" width="27" height="27" as="geometry" />
        </mxCell>
        <mxCell id="ZAq49iZOmX_xIdGRycD7-50" style="edgeStyle=orthogonalEdgeStyle;rounded=0;orthogonalLoop=1;jettySize=auto;html=1;entryX=0.5;entryY=0;entryDx=0;entryDy=0;endArrow=open;endFill=0;" parent="1" source="ZAq49iZOmX_xIdGRycD7-46" target="ZAq49iZOmX_xIdGRycD7-49" edge="1">
          <mxGeometry relative="1" as="geometry" />
        </mxCell>
        <mxCell id="ZAq49iZOmX_xIdGRycD7-46" value="上傳掃描檔" style="shape=rect;html=1;rounded=1;whiteSpace=wrap;align=center;aspect=fixed;" parent="1" vertex="1">
          <mxGeometry x="232.25" y="240" width="130" height="65" as="geometry" />
        </mxCell>
        <mxCell id="ZAq49iZOmX_xIdGRycD7-51" style="edgeStyle=orthogonalEdgeStyle;rounded=0;orthogonalLoop=1;jettySize=auto;html=1;entryX=0.5;entryY=0;entryDx=0;entryDy=0;entryPerimeter=0;endArrow=open;endFill=0;" parent="1" source="ZAq49iZOmX_xIdGRycD7-49" target="ZAq49iZOmX_xIdGRycD7-4" edge="1">
          <mxGeometry relative="1" as="geometry" />
        </mxCell>
        <mxCell id="ZAq49iZOmX_xIdGRycD7-49" value="存入資料庫" style="shape=rect;html=1;rounded=1;whiteSpace=wrap;align=center;aspect=fixed;" parent="1" vertex="1">
          <mxGeometry x="230.75" y="340" width="131.5" height="65.75" as="geometry" />
        </mxCell>
      </root>
    </mxGraphModel>
  </diagram>
</mxfile>
